REM DIRINDEX 1\2\5,1\2\6,1\2\7,1\2\8,1\3\9,1\3\10,1\3\11,1\4\12,1\4\13,1\4\14,1\4\15,1\4\16
REM DIRNAME cjc034,folder01,folder02,folder03,folder04,folder05,folder06,folder07,folder08,folder09,folder10,folder11,folder12,folder13,folder14,folder15
TITLE ""
FILE "1200_sec03_0655_0664.mp3" MP3
  TRACK 01 AUDIO
    TITLE "0:"
    INDEX 01 00:00:00
  TRACK 02 AUDIO
    TITLE "12:cjc034_06275"
    INDEX 01 00:00:25
  TRACK 03 AUDIO
    TITLE "0:"
    INDEX 01 00:01:30
  TRACK 04 AUDIO
    TITLE "13:cjc034_06276"
    INDEX 01 00:01:66
  TRACK 05 AUDIO
    TITLE "0:"
    INDEX 01 00:06:67
  TRACK 06 AUDIO
    TITLE "14:cjc034_06277"
    INDEX 01 00:07:31
  TRACK 07 AUDIO
    TITLE "0:"
    INDEX 01 00:08:36
  TRACK 08 AUDIO
    TITLE "15:cjc034_06278"
    INDEX 01 00:08:73
  TRACK 09 AUDIO
    TITLE "0:"
    INDEX 01 00:12:60
  TRACK 10 AUDIO
    TITLE "12:cjc034_06279"
    INDEX 01 00:14:15
  TRACK 11 AUDIO
    TITLE "0:"
    INDEX 01 00:15:48
  TRACK 12 AUDIO
    TITLE "13:cjc034_06280"
    INDEX 01 00:16:06
  TRACK 13 AUDIO
    TITLE "0:"
    INDEX 01 00:17:18
  TRACK 14 AUDIO
    TITLE "14:cjc034_06281"
    INDEX 01 00:17:51
  TRACK 15 AUDIO
    TITLE "0:"
    INDEX 01 00:19:07
  TRACK 16 AUDIO
    TITLE "15:cjc034_06282"
    INDEX 01 00:19:40
  TRACK 17 AUDIO
    TITLE "0:"
    INDEX 01 00:23:57
  TRACK 18 AUDIO
    TITLE "12:cjc034_06283"
    INDEX 01 00:25:17
  TRACK 19 AUDIO
    TITLE "0:"
    INDEX 01 00:26:52
  TRACK 20 AUDIO
    TITLE "13:cjc034_06284"
    INDEX 01 00:27:10
  TRACK 21 AUDIO
    TITLE "0:"
    INDEX 01 00:29:66
  TRACK 22 AUDIO
    TITLE "14:cjc034_06285"
    INDEX 01 00:30:22
  TRACK 23 AUDIO
    TITLE "0:"
    INDEX 01 00:31:57
  TRACK 24 AUDIO
    TITLE "15:cjc034_06286"
    INDEX 01 00:32:15
  TRACK 25 AUDIO
    TITLE "0:"
    INDEX 01 00:35:72
  TRACK 26 AUDIO
    TITLE "12:cjc034_06287"
    INDEX 01 00:37:32
  TRACK 27 AUDIO
    TITLE "0:"
    INDEX 01 00:38:51
  TRACK 28 AUDIO
    TITLE "13:cjc034_06288"
    INDEX 01 00:39:09
  TRACK 29 AUDIO
    TITLE "0:"
    INDEX 01 00:40:24
  TRACK 30 AUDIO
    TITLE "14:cjc034_06289"
    INDEX 01 00:40:62
  TRACK 31 AUDIO
    TITLE "0:"
    INDEX 01 00:42:06
  TRACK 32 AUDIO
    TITLE "15:cjc034_06290"
    INDEX 01 00:42:39
  TRACK 33 AUDIO
    TITLE "0:"
    INDEX 01 00:45:49
  TRACK 34 AUDIO
    TITLE "12:cjc034_06291"
    INDEX 01 00:47:09
  TRACK 35 AUDIO
    TITLE "0:"
    INDEX 01 00:48:40
  TRACK 36 AUDIO
    TITLE "13:cjc034_06292"
    INDEX 01 00:48:73
  TRACK 37 AUDIO
    TITLE "0:"
    INDEX 01 00:51:54
  TRACK 38 AUDIO
    TITLE "14:cjc034_06293"
    INDEX 01 00:52:12
  TRACK 39 AUDIO
    TITLE "0:"
    INDEX 01 00:53:43
  TRACK 40 AUDIO
    TITLE "15:cjc034_06294"
    INDEX 01 00:54:01
  TRACK 41 AUDIO
    TITLE "0:"
    INDEX 01 00:57:64
  TRACK 42 AUDIO
    TITLE "12:cjc034_06295"
    INDEX 01 00:59:22
  TRACK 43 AUDIO
    TITLE "0:"
    INDEX 01 01:00:33
  TRACK 44 AUDIO
    TITLE "13:cjc034_06296"
    INDEX 01 01:00:66
  TRACK 45 AUDIO
    TITLE "0:"
    INDEX 01 01:03:10
  TRACK 46 AUDIO
    TITLE "14:cjc034_06297"
    INDEX 01 01:03:41
  TRACK 47 AUDIO
    TITLE "0:"
    INDEX 01 01:04:52
  TRACK 48 AUDIO
    TITLE "15:cjc034_06298"
    INDEX 01 01:05:11
  TRACK 49 AUDIO
    TITLE "0:"
    INDEX 01 01:09:16
  TRACK 50 AUDIO
    TITLE "12:cjc034_06299"
    INDEX 01 01:10:49
  TRACK 51 AUDIO
    TITLE "0:"
    INDEX 01 01:11:72
  TRACK 52 AUDIO
    TITLE "13:cjc034_06300"
    INDEX 01 01:12:26
  TRACK 53 AUDIO
    TITLE "0:"
    INDEX 01 01:13:36
  TRACK 54 AUDIO
    TITLE "14:cjc034_06301"
    INDEX 01 01:13:69
  TRACK 55 AUDIO
    TITLE "0:"
    INDEX 01 01:15:15
  TRACK 56 AUDIO
    TITLE "15:cjc034_06302"
    INDEX 01 01:15:50
  TRACK 57 AUDIO
    TITLE "0:"
    INDEX 01 01:21:10
  TRACK 58 AUDIO
    TITLE "12:cjc034_06303"
    INDEX 01 01:22:42
  TRACK 59 AUDIO
    TITLE "0:"
    INDEX 01 01:23:58
  TRACK 60 AUDIO
    TITLE "13:cjc034_06304"
    INDEX 01 01:24:18
  TRACK 61 AUDIO
    TITLE "0:"
    INDEX 01 01:25:13
  TRACK 62 AUDIO
    TITLE "14:cjc034_06305"
    INDEX 01 01:25:49
  TRACK 63 AUDIO
    TITLE "0:"
    INDEX 01 01:26:66
  TRACK 64 AUDIO
    TITLE "15:cjc034_06306"
    INDEX 01 01:27:24
  TRACK 65 AUDIO
    TITLE "0:"
    INDEX 01 01:31:06
  TRACK 66 AUDIO
    TITLE "12:cjc034_06307"
    INDEX 01 01:32:43
  TRACK 67 AUDIO
    TITLE "0:"
    INDEX 01 01:33:60
  TRACK 68 AUDIO
    TITLE "13:cjc034_06308"
    INDEX 01 01:34:20
  TRACK 69 AUDIO
    TITLE "0:"
    INDEX 01 01:35:33
  TRACK 70 AUDIO
    TITLE "14:cjc034_06309"
    INDEX 01 01:35:65
  TRACK 71 AUDIO
    TITLE "0:"
    INDEX 01 01:37:09
  TRACK 72 AUDIO
    TITLE "15:cjc034_06310"
    INDEX 01 01:37:48
  TRACK 73 AUDIO
    TITLE "0:"
    INDEX 01 01:41:01
  TRACK 74 AUDIO
    TITLE "12:cjc034_06311"
    INDEX 01 01:42:35
  TRACK 75 AUDIO
    TITLE "0:"
    INDEX 01 01:43:45
  TRACK 76 AUDIO
    TITLE "13:cjc034_06312"
    INDEX 01 01:44:05
  TRACK 77 AUDIO
    TITLE "0:"
    INDEX 01 01:44:66
  TRACK 78 AUDIO
    TITLE "14:cjc034_06313"
    INDEX 01 01:45:24
  TRACK 79 AUDIO
    TITLE "0:"
    INDEX 01 01:46:33
  TRACK 80 AUDIO
    TITLE "15:cjc034_06314"
    INDEX 01 01:46:68
  TRACK 81 AUDIO
    TITLE "0:"
    INDEX 01 01:50:54
